STARTFONT 2.1
FONT -Adobe-New Century Schoolbook-Bold-R-Normal--34-240-100-100-P-193-ISO8859-2
SIZE 24 100 100
FONTBOUNDINGBOX 36 40 -4 -7
COMMENT $XConsortium: ncenB24.bdf,v 1.7 95/01/26 17:56:04 gildea Exp $
COMMENT 
COMMENT +
COMMENT  Copyright 1984-1989, 1994 Adobe Systems Incorporated.
COMMENT  Copyright 1988, 1994 Digital Equipment Corporation.
COMMENT
COMMENT  Adobe is a trademark of Adobe Systems Incorporated which may be
COMMENT  registered in certain jurisdictions.
COMMENT  Permission to use these trademarks is hereby granted only in
COMMENT  association with the images described in this file.
COMMENT
COMMENT  Permission to use, copy, modify, distribute and sell this software
COMMENT  and its documentation for any purpose and without fee is hereby
COMMENT  granted, provided that the above copyright notices appear in all
COMMENT  copies and that both those copyright notices and this permission
COMMENT  notice appear in supporting documentation, and that the names of
COMMENT  Adobe Systems and Digital Equipment Corporation not be used in
COMMENT  advertising or publicity pertaining to distribution of the software
COMMENT  without specific, written prior permission.  Adobe Systems and
COMMENT  Digital Equipment Corporation make no representations about the
COMMENT  suitability of this software for any purpose.  It is provided "as
COMMENT  is" without express or implied warranty.
COMMENT -
COMMENT  
COMMENT  Translation to ISO8859-2 by Cub Soft;  Petr.Kolar@vslib.cz
COMMENT  
STARTPROPERTIES 28
FOUNDRY "Adobe"
FAMILY_NAME "New Century Schoolbook"
WEIGHT_NAME "Bold"
SLANT "R"
SETWIDTH_NAME "Normal"
ADD_STYLE_NAME ""
PIXEL_SIZE 34
POINT_SIZE 240
RESOLUTION_X 100
RESOLUTION_Y 100
SPACING "P"
AVERAGE_WIDTH 193
CHARSET_REGISTRY "ISO8859"
CHARSET_ENCODING "2"
CAP_HEIGHT 25
X_HEIGHT 16
FONT_ASCENT 29
FONT_DESCENT 7
FACE_NAME "New Century Schoolbook Bold"

STARTCHAR space
ENCODING 32
SWIDTH 287 0
DWIDTH 9 0
BBX 1 1 1 0
BITMAP
00
ENDCHAR
STARTCHAR exclam
ENCODING 33
SWIDTH 296 0
DWIDTH 10 0
BBX 6 25 2 0
BITMAP
78
fc
fc
fc
fc
fc
fc
78
78
78
78
30
30
30
30
30
30
00
00
78
fc
fc
fc
fc
78
ENDCHAR
STARTCHAR quotedbl
ENCODING 34
SWIDTH 333 0
DWIDTH 11 0
BBX 11 11 0 14
BITMAP
60c0
f1e0
f1e0
f1e0
f1e0
f1e0
f1e0
60c0
60c0
60c0
60c0
ENDCHAR
STARTCHAR numbersign
ENCODING 35
SWIDTH 574 0
DWIDTH 19 0
BBX 16 25 1 -1
BITMAP
071c
071c
071c
071c
0e38
0e38
0e38
7fff
7fff
7fff
0e38
0c30
1c70
1c70
fffe
fffe
fffe
1c70
1c70
38e0
38e0
38e0
38e0
38e0
38e0
ENDCHAR
STARTCHAR dollar
ENCODING 36
SWIDTH 574 0
DWIDTH 19 0
BBX 17 30 1 -4
BITMAP
018000
018000
018000
07f000
1ffc00
399e00
718f00
719f00
f19f00
f18e00
fd8000
ff8000
7ff000
7ffc00
3ffe00
0fff00
01ff80
01bf80
718f80
f98780
f98780
f98700
f18f00
799e00
3ffc00
07e000
018000
018000
018000
018000
ENDCHAR
STARTCHAR percent
ENCODING 37
SWIDTH 833 0
DWIDTH 27 0
BBX 26 24 0 0
BITMAP
00001800
07c03000
0f607000
1e39e000
3c1f6000
3c10c000
78108000
78118000
f0310000
f0230000
f0620000
f0c61f00
7b8c3d80
3f0c78c0
0018f040
0011f040
0031e040
0021e0c0
0063e0c0
00c3c180
00c3c180
0183c300
0181e600
0300fc00
ENDCHAR
STARTCHAR ampersand
ENCODING 38
SWIDTH 852 0
DWIDTH 28 0
BBX 24 25 2 0
BITMAP
007c00
01ff00
03c700
078780
078380
078380
07c780
07c700
07ef00
07fc00
03f800
07f1ff
0ff9ff
3df87c
78fc38
78fe70
f87e60
f83fe0
fc3fc0
fc1fc1
fe0fe3
ff0ff3
7ffffe
3ff3fe
0f80fc
ENDCHAR
STARTCHAR apostrophe
ENCODING 39
SWIDTH 241 0
DWIDTH 8 0
BBX 6 12 1 13
BITMAP
78
fc
fc
fc
fc
7c
1c
18
38
70
e0
c0
ENDCHAR
STARTCHAR parenleft
ENCODING 40
SWIDTH 389 0
DWIDTH 13 0
BBX 9 27 2 -3
BITMAP
0380
0700
0e00
1c00
1c00
3800
3800
7800
7800
f000
f000
f000
f000
f000
f000
f000
f000
f000
7000
7800
3800
3800
1c00
1c00
0e00
0700
0380
ENDCHAR
STARTCHAR parenright
ENCODING 41
SWIDTH 389 0
DWIDTH 13 0
BBX 9 27 1 -3
BITMAP
e000
3000
3800
1c00
1c00
0e00
0e00
0f00
0700
0780
0780
0780
0780
0780
0780
0780
0780
0780
0f00
0f00
0e00
0e00
1c00
1c00
3800
7000
c000
ENDCHAR
STARTCHAR asterisk
ENCODING 42
SWIDTH 500 0
DWIDTH 17 0
BBX 12 15 2 10
BITMAP
0600
0e00
0e00
e670
e670
f6f0
3fc0
0f00
7fe0
f6f0
e670
e670
0700
0700
0600
ENDCHAR
STARTCHAR plus
ENCODING 43
SWIDTH 606 0
DWIDTH 20 0
BBX 16 16 2 1
BITMAP
03c0
03c0
03c0
03c0
03c0
03c0
ffff
ffff
ffff
ffff
03c0
03c0
03c0
03c0
03c0
03c0
ENDCHAR
STARTCHAR comma
ENCODING 44
SWIDTH 278 0
DWIDTH 9 0
BBX 6 11 2 -5
BITMAP
78
f8
fc
fc
fc
7c
1c
18
30
70
e0
ENDCHAR
STARTCHAR minus
ENCODING 45
SWIDTH 606 0
DWIDTH 20 0
BBX 16 4 2 6
BITMAP
ffff
ffff
ffff
ffff
ENDCHAR
STARTCHAR period
ENCODING 46
SWIDTH 278 0
DWIDTH 9 0
BBX 6 6 1 0
BITMAP
78
fc
fc
fc
fc
78
ENDCHAR
STARTCHAR slash
ENCODING 47
SWIDTH 278 0
DWIDTH 9 0
BBX 10 25 -1 0
BITMAP
00c0
01c0
01c0
0180
0380
0380
0300
0700
0700
0600
0e00
0e00
0c00
1c00
1c00
1800
3800
3800
3000
7000
7000
6000
e000
e000
c000
ENDCHAR
STARTCHAR zero
ENCODING 48
SWIDTH 574 0
DWIDTH 19 0
BBX 16 24 1 0
BITMAP
03c0
0ff0
1e78
3c3c
7c3e
781e
f81f
f81f
f81f
f81f
f81f
f81f
f81f
f81f
f81f
f81f
f81f
781e
781e
7c3e
3c3c
1e78
0ff0
03c0
ENDCHAR
STARTCHAR one
ENCODING 49
SWIDTH 574 0
DWIDTH 19 0
BBX 13 24 3 0
BITMAP
0180
0780
ff80
ff80
0f80
0f80
0f80
0f80
0f80
0f80
0f80
0f80
0f80
0f80
0f80
0f80
0f80
0f80
0f80
0f80
0f80
0f80
fff8
fff8
ENDCHAR
STARTCHAR two
ENCODING 50
SWIDTH 574 0
DWIDTH 19 0
BBX 17 24 1 0
BITMAP
0ff000
3ffc00
787e00
f03f00
f81f00
fc1f00
fc1f00
fc1f00
7c3f00
383e00
007c00
00f800
00f000
01e000
03c000
038180
070180
0e0180
1c0380
3fff80
7fff00
7fff00
ffff00
ffff00
ENDCHAR
STARTCHAR three
ENCODING 51
SWIDTH 574 0
DWIDTH 19 0
BBX 16 24 1 0
BITMAP
0fe0
3ff8
787c
f83e
fc3e
fc3e
fc3e
783e
007c
0070
07e0
07c0
00f8
007e
003e
003f
781f
fc1f
fc1f
fc3f
f83e
787e
3ff8
07e0
ENDCHAR
STARTCHAR four
ENCODING 52
SWIDTH 574 0
DWIDTH 19 0
BBX 17 24 0 0
BITMAP
000400
000c00
001c00
003c00
007c00
00fc00
01fc00
01fc00
037c00
067c00
0c7c00
1c7c00
387c00
707c00
e07c00
c07c00
ffff80
ffff80
007c00
007c00
007c00
007c00
03ff80
03ff80
ENDCHAR
STARTCHAR five
ENCODING 53
SWIDTH 574 0
DWIDTH 19 0
BBX 16 24 1 0
BITMAP
1fff
3ffe
3ffe
3ffc
3ff0
3000
3000
3000
3000
37e0
3ff8
387c
303e
203e
001f
001f
381f
7c1f
fc1f
fc3e
783e
70fc
3ff0
0fc0
ENDCHAR
STARTCHAR six
ENCODING 54
SWIDTH 574 0
DWIDTH 19 0
BBX 17 24 1 0
BITMAP
03f000
0ffc00
1f1e00
3e3e00
3c3e00
7c3e00
781c00
f80000
f80000
f80000
f9f800
fffe00
ff7f00
fc1f00
f81f80
f80f80
f80f80
f80f80
f80f80
7c1f00
7c1f00
3e3e00
1ffc00
07f000
ENDCHAR
STARTCHAR seven
ENCODING 55
SWIDTH 574 0
DWIDTH 19 0
BBX 16 24 2 0
BITMAP
ffff
fffe
fffe
fffc
fffc
c018
c018
c038
8070
0070
00f0
00e0
01e0
01e0
03e0
03c0
07c0
07c0
0fc0
0fc0
0fc0
0fc0
0fc0
0780
ENDCHAR
STARTCHAR eight
ENCODING 56
SWIDTH 574 0
DWIDTH 19 0
BBX 17 24 1 0
BITMAP
07f000
0ffc00
3c3e00
381f00
780f00
780f00
780f00
7c0f00
7e1e00
7ffc00
3ff000
1ffc00
0ffe00
3fff00
787f00
f81f80
f00f80
f00f80
f00f00
f00f00
f81e00
7c3c00
3ff000
07c000
ENDCHAR
STARTCHAR nine
ENCODING 57
SWIDTH 574 0
DWIDTH 19 0
BBX 17 24 1 0
BITMAP
03c000
1ff800
3e7c00
7c3e00
fc1f00
f81f00
f80f80
f80f80
f80f80
fc1f80
fc3f80
7f6f80
3fcf80
1f8f80
000f80
000f80
700f00
f81f00
fc1f00
f81e00
f83e00
70fc00
3ff000
0fc000
ENDCHAR
STARTCHAR colon
ENCODING 58
SWIDTH 278 0
DWIDTH 9 0
BBX 6 16 2 0
BITMAP
78
fc
fc
fc
fc
78
00
00
00
00
78
fc
fc
fc
fc
78
ENDCHAR
STARTCHAR semicolon
ENCODING 59
SWIDTH 278 0
DWIDTH 9 0
BBX 6 21 2 -5
BITMAP
78
fc
fc
fc
fc
78
00
00
00
00
78
f8
fc
fc
fc
7c
1c
18
30
70
e0
ENDCHAR
STARTCHAR less
ENCODING 60
SWIDTH 606 0
DWIDTH 20 0
BBX 16 18 2 0
BITMAP
0003
000f
007f
01ff
07fc
1ff0
7f80
fe00
f800
fc00
ff80
3fe0
0ff8
03fe
007f
001f
0007
0001
ENDCHAR
STARTCHAR equal
ENCODING 61
SWIDTH 606 0
DWIDTH 20 0
BBX 16 10 2 3
BITMAP
ffff
ffff
ffff
ffff
0000
0000
ffff
ffff
ffff
ffff
ENDCHAR
STARTCHAR greater
ENCODING 62
SWIDTH 606 0
DWIDTH 20 0
BBX 16 18 2 0
BITMAP
c000
f000
fe00
ff80
3fe0
0ff8
01fe
007f
001f
003f
01ff
07fc
1ff0
7fc0
fe00
f800
e000
8000
ENDCHAR
STARTCHAR question
ENCODING 63
SWIDTH 500 0
DWIDTH 16 0
BBX 14 25 1 0
BITMAP
0fc0
3ff0
71f8
f0f8
f8fc
f8fc
f8fc
70fc
00f8
01f8
01f0
03e0
0380
0700
0700
0600
0600
0000
0000
0f00
1f80
1f80
1f80
1f80
0f00
ENDCHAR
STARTCHAR at
ENCODING 64
SWIDTH 747 0
DWIDTH 25 0
BBX 23 25 0 0
BITMAP
007f00
01ffc0
07e3f0
0f0078
1e001c
1c000c
383c06
30ffe6
71e3e6
71e3c6
63c3c6
e383c6
e78786
e7878c
e7078c
e70f1c
e70f18
e31f70
73f7e0
30e3cc
38001c
1c0078
0f01f0
07ffe0
01ff00
ENDCHAR
STARTCHAR A
ENCODING 65
SWIDTH 759 0
DWIDTH 25 0
BBX 25 25 0 0
BITMAP
001c0000
001c0000
001e0000
003e0000
003f0000
007f0000
007f8000
007f8000
00ff8000
00cfc000
01cfc000
018fc000
0187e000
0387e000
0307f000
0703f000
07fff000
07fff800
0e01f800
0c01fc00
1c00fc00
1c00fe00
3e00fe00
ff83ff80
ff83ff80
ENDCHAR
STARTCHAR B
ENCODING 66
SWIDTH 778 0
DWIDTH 25 0
BBX 23 25 1 0
BITMAP
ffff80
ffffe0
1f83f0
1f81f8
1f81f8
1f80fc
1f80fc
1f80fc
1f80f8
1f81f8
1f81f0
1f87e0
1fff00
1fffc0
1f83f0
1f80fc
1f80fc
1f80fe
1f807e
1f80fe
1f80fc
1f80fc
1f83f8
fffff0
ffffc0
ENDCHAR
STARTCHAR C
ENCODING 67
SWIDTH 778 0
DWIDTH 24 0
BBX 22 25 1 0
BITMAP
007e18
03ffb8
07c1f8
1f80f8
1f0078
3e0038
7e0038
7e0018
fe0018
fc0008
fc0000
fc0000
fc0000
fc0000
fc0000
fe0000
fe000c
fe001c
7e0018
7e0038
3f0030
1f8070
0fc1e0
07ffc0
00ff00
ENDCHAR
STARTCHAR D
ENCODING 68
SWIDTH 833 0
DWIDTH 26 0
BBX 24 25 1 0
BITMAP
ffff00
ffffe0
1f83f0
1f81f8
1f80fc
1f807e
1f807e
1f807f
1f803f
1f803f
1f803f
1f803f
1f803f
1f803f
1f803f
1f803f
1f807f
1f807e
1f807e
1f807e
1f80fc
1f81f8
1f83f0
ffffe0
ffff00
ENDCHAR
STARTCHAR E
ENCODING 69
SWIDTH 759 0
DWIDTH 23 0
BBX 21 25 1 0
BITMAP
fffff8
fffff8
1f81f8
1f80f8
1f8078
1f8038
1f8038
1f8618
1f8618
1f8e00
1f8e00
1f9e00
1ffe00
1ffe00
1f9e00
1f8e00
1f8618
1f8618
1f8618
1f8038
1f8038
1f8078
1f81f8
fffff8
fffff8
ENDCHAR
STARTCHAR F
ENCODING 70
SWIDTH 722 0
DWIDTH 23 0
BBX 21 25 1 0
BITMAP
fffff8
fffff8
1fc1f8
1f80f8
1f8078
1f8038
1f8018
1f8318
1f8318
1f8708
1f8700
1f9f00
1fff00
1fff00
1f8f00
1f8700
1f8300
1f8300
1f8300
1f8000
1f8000
1f8000
1f8000
fff800
fff800
ENDCHAR
STARTCHAR G
ENCODING 71
SWIDTH 833 0
DWIDTH 26 0
BBX 25 25 1 0
BITMAP
007e0c00
03ffdc00
07c1fc00
0f807c00
1f003c00
3f001c00
7e001c00
7e000c00
fe000c00
fe000400
fe000000
fc000000
fc000000
fc000000
fc07ff80
fc07ff80
fc007c00
fe007c00
7e007c00
7e007c00
3f00fc00
1f00fc00
0f81dc00
07ff1c00
00fc0c00
ENDCHAR
STARTCHAR H
ENCODING 72
SWIDTH 870 0
DWIDTH 28 0
BBX 26 25 1 0
BITMAP
fff3ffc0
fff3ffc0
1f807e00
1f807e00
1f807e00
1f807e00
1f807e00
1f807e00
1f807e00
1f807e00
1f807e00
1f807e00
1ffffe00
1ffffe00
1f807e00
1f807e00
1f807e00
1f807e00
1f807e00
1f807e00
1f807e00
1f807e00
1f807e00
fff3ffc0
fff3ffc0
ENDCHAR
STARTCHAR I
ENCODING 73
SWIDTH 444 0
DWIDTH 14 0
BBX 12 25 1 0
BITMAP
fff0
fff0
1f80
1f80
1f80
1f80
1f80
1f80
1f80
1f80
1f80
1f80
1f80
1f80
1f80
1f80
1f80
1f80
1f80
1f80
1f80
1f80
1f80
fff0
fff0
ENDCHAR
STARTCHAR J
ENCODING 74
SWIDTH 648 0
DWIDTH 20 0
BBX 20 25 0 0
BITMAP
00fff0
00fff0
001f80
001f80
001f80
001f80
001f80
001f80
001f80
001f80
001f80
001f80
001f80
181f80
7e1f80
7e1f80
fe1f80
fe1f80
fe1f80
fc1f00
603f00
603e00
38fe00
3ff800
0fe000
ENDCHAR
STARTCHAR K
ENCODING 75
SWIDTH 815 0
DWIDTH 27 0
BBX 25 25 1 0
BITMAP
fff3ff80
fff3ff80
1f807e00
1f807800
1f80f000
1f81e000
1f81c000
1f838000
1f870000
1f8f0000
1f9f0000
1fbf8000
1fffc000
1fefc000
1fefe000
1fc7e000
1f87f000
1f83f800
1f81f800
1f81fc00
1f80fc00
1f80fe00
1f80ff00
fff3ff80
fff3ff80
ENDCHAR
STARTCHAR L
ENCODING 76
SWIDTH 722 0
DWIDTH 23 0
BBX 21 25 1 0
BITMAP
fff000
fff000
1f8000
1f8000
1f8000
1f8000
1f8000
1f8000
1f8000
1f8000
1f8000
1f8000
1f8000
1f8000
1f8000
1f8000
1f8018
1f8018
1f8018
1f8038
1f8038
1f8078
1f81f8
fffff8
fffff8
ENDCHAR
STARTCHAR M
ENCODING 77
SWIDTH 981 0
DWIDTH 32 0
BBX 31 25 0 0
BITMAP
7fe007fe
7ff00ffe
0ff00ff0
0ff00ff0
0df81bf0
0df81bf0
0df81bf0
0cfc3bf0
0cfc33f0
0cfc33f0
0c7c73f0
0c7e63f0
0c7e63f0
0c3ee3f0
0c3fc3f0
0c3fc3f0
0c1fc3f0
0c1f83f0
0c1f83f0
0c0f83f0
0c0f03f0
0c0f03f0
1e0f03f0
ffc61ffe
ffc61ffe
ENDCHAR
STARTCHAR N
ENCODING 78
SWIDTH 833 0
DWIDTH 27 0
BBX 27 25 0 0
BITMAP
ff807fe0
ffc07fe0
3fe00f00
0fe00600
0ff00600
0ff80600
0ffc0600
0dfe0600
0cfe0600
0cff0600
0c7f8600
0c3fc600
0c1fe600
0c0fe600
0c0ff600
0c07fe00
0c03fe00
0c01fe00
0c00fe00
0c007e00
0c007e00
0c003e00
1e001e00
ffc00e00
ffc00600
ENDCHAR
STARTCHAR O
ENCODING 79
SWIDTH 833 0
DWIDTH 26 0
BBX 24 25 1 0
BITMAP
007e00
03ffc0
0fc1f0
1f80f8
3f00fc
3e007c
7e007e
7e007e
fc003f
fc003f
fc003f
fc003f
fc003f
fc003f
fc003f
fc003f
fc003f
7e007e
7e007e
3e007c
3f00fc
1f80f8
0fc1f0
03ffc0
007e00
ENDCHAR
STARTCHAR P
ENCODING 80
SWIDTH 759 0
DWIDTH 24 0
BBX 22 25 1 0
BITMAP
ffff80
ffffe0
1f83f0
1f81f8
1f80fc
1f80fc
1f80fc
1f80fc
1f80fc
1f80fc
1f81f8
1f83f0
1fffe0
1fff00
1f8000
1f8000
1f8000
1f8000
1f8000
1f8000
1f8000
1f8000
1f8000
fff000
fff000
ENDCHAR
STARTCHAR Q
ENCODING 81
SWIDTH 833 0
DWIDTH 26 0
BBX 25 31 1 -6
BITMAP
007e0000
03ffc000
0fc1f000
1f80f800
3f00fc00
3e007c00
7e007e00
7e007e00
fc003f00
fc003f00
fc003f00
fc003f00
fc003f00
fc003f00
fc003f00
fc3c3f00
fcfe3f00
7f877e00
7f83fe00
3f03fc00
3f03fc00
1f83f800
0fc3f000
03ffe000
007fe000
0003e180
0003e180
0001f380
0001ff00
0000fe00
00003c00
ENDCHAR
STARTCHAR R
ENCODING 82
SWIDTH 815 0
DWIDTH 27 0
BBX 25 25 1 0
BITMAP
ffff8000
fffff000
1f83f800
1f81f800
1f80fc00
1f80fc00
1f80fc00
1f80fc00
1f80fc00
1f81f800
1f81f000
1f87c000
1fff0000
1fffc000
1f87e000
1f83e000
1f83f000
1f83f000
1f83f000
1f83f980
1f81f980
1f81fb00
1f81ff00
fff0fe00
fff07c00
ENDCHAR
STARTCHAR S
ENCODING 83
SWIDTH 667 0
DWIDTH 21 0
BBX 19 25 1 0
BITMAP
03f0c0
1ffdc0
3c1fc0
7807c0
7003c0
f001c0
f000c0
f800c0
ff00c0
fff000
7ffe00
7fff00
3fff80
0fffc0
07ffe0
407fe0
6007e0
6003e0
7001e0
7801e0
7801c0
7e03c0
7f0780
67ff00
61fc00
ENDCHAR
STARTCHAR T
ENCODING 84
SWIDTH 722 0
DWIDTH 23 0
BBX 21 25 1 0
BITMAP
fffff8
fffff8
f1f878
e1f838
e1f838
c1f818
c1f818
c1f818
81f808
81f808
01f800
01f800
01f800
01f800
01f800
01f800
01f800
01f800
01f800
01f800
01f800
01f800
01f800
0fff80
0fff80
ENDCHAR
STARTCHAR U
ENCODING 85
SWIDTH 833 0
DWIDTH 28 0
BBX 26 25 1 0
BITMAP
fff0ffc0
fff0ffc0
1f801e00
1f800c00
1f800c00
1f800c00
1f800c00
1f800c00
1f800c00
1f800c00
1f800c00
1f800c00
1f800c00
1f800c00
1f800c00
1f800c00
1f800c00
1f800c00
1f800c00
1f801c00
0fc01800
0fe03800
07f8f000
03ffe000
00ffc000
ENDCHAR
STARTCHAR V
ENCODING 86
SWIDTH 759 0
DWIDTH 25 0
BBX 25 25 0 0
BITMAP
ffe0ff80
ffe0ff80
3f803e00
1f801c00
1f801c00
1fc01800
0fc03800
0fc03000
07e07000
07e07000
07f06000
03f0e000
03f0c000
01f8c000
01f9c000
01f98000
00ff8000
00ff0000
00ff0000
007f0000
007e0000
003e0000
003e0000
003c0000
001c0000
ENDCHAR
STARTCHAR W
ENCODING 87
SWIDTH 981 0
DWIDTH 32 0
BBX 32 25 0 0
BITMAP
ffdff9ff
ffdff9ff
3f07e07c
3f07e038
1f83e030
1f83f070
1f83f070
0fc1f060
0fc3f860
0fc3f8e0
07c3f8c0
07e7f8c0
07e6fcc0
07e6fd80
03fe7d80
03fc7f80
03fc7f80
01fc3f00
01f83f00
01f83f00
00f83e00
00f81e00
00f01e00
00701c00
00700c00
ENDCHAR
STARTCHAR X
ENCODING 88
SWIDTH 722 0
DWIDTH 24 0
BBX 24 25 0 0
BITMAP
ffe3ff
ffe3ff
3f80fc
1fc078
1fc070
0fe0e0
07e0c0
07f1c0
03ff80
03ff00
01ff00
00fe00
00fe00
007f00
007f80
00ff80
01dfc0
038fe0
038fe0
0707f0
0e03f0
1e03f8
3f03fc
ffefff
ffefff
ENDCHAR
STARTCHAR Y
ENCODING 89
SWIDTH 722 0
DWIDTH 24 0
BBX 24 25 0 0
BITMAP
fff1ff
fff1ff
3f807c
1fc038
1fc070
0fe070
0fe0e0
07f0c0
03f1c0
03f980
01fb80
01ff00
00ff00
007e00
007e00
007e00
007e00
007e00
007e00
007e00
007e00
007e00
007e00
03ffc0
03ffc0
ENDCHAR
STARTCHAR Z
ENCODING 90
SWIDTH 667 0
DWIDTH 21 0
BBX 19 25 1 0
BITMAP
7fffe0
7fffe0
7e0fe0
780fe0
701fc0
701f80
603f80
607f00
407e00
00fe00
01fc00
01fc00
03f800
03f000
07f000
0fe020
0fe060
1fc060
1f8060
3f80e0
7f00e0
7f01e0
fe07e0
ffffe0
ffffe0
ENDCHAR
STARTCHAR bracketleft
ENCODING 91
SWIDTH 389 0
DWIDTH 13 0
BBX 8 29 3 -4
BITMAP
ff
ff
f0
f0
f0
f0
f0
f0
f0
f0
f0
f0
f0
f0
f0
f0
f0
f0
f0
f0
f0
f0
f0
f0
f0
f0
f0
ff
ff
ENDCHAR
STARTCHAR backslash
ENCODING 92
SWIDTH 606 0
DWIDTH 20 0
BBX 16 25 2 0
BITMAP
f000
f800
7800
7c00
3c00
3e00
1e00
1f00
0f00
0f80
0780
07c0
03c0
03e0
01e0
01f0
00f0
00f8
0078
007c
003c
003e
001e
001e
000f
ENDCHAR
STARTCHAR bracketright
ENCODING 93
SWIDTH 389 0
DWIDTH 13 0
BBX 8 29 1 -4
BITMAP
ff
ff
0f
0f
0f
0f
0f
0f
0f
0f
0f
0f
0f
0f
0f
0f
0f
0f
0f
0f
0f
0f
0f
0f
0f
0f
0f
ff
ff
ENDCHAR
STARTCHAR asciicircum
ENCODING 94
SWIDTH 606 0
DWIDTH 20 0
BBX 16 14 2 11
BITMAP
03c0
07e0
07e0
0ff0
0ff0
0ff0
1e78
1e78
3c3c
3c3c
7c3e
781e
f81f
f00f
ENDCHAR
STARTCHAR underscore
ENCODING 95
SWIDTH 500 0
DWIDTH 16 0
BBX 16 3 0 -5
BITMAP
ffff
ffff
ffff
ENDCHAR
STARTCHAR grave
ENCODING 96
SWIDTH 333 0
DWIDTH 11 0
BBX 7 6 2 17
BITMAP
60
f0
f8
7c
1e
06
ENDCHAR
STARTCHAR a
ENCODING 97
SWIDTH 611 0
DWIDTH 20 0
BBX 18 16 1 0
BITMAP
0ff000
3ffc00
787e00
7c3e00
7c3e00
383e00
003e00
03fe00
1fbe00
7e3e00
7c3e00
fc3e00
fc3e00
fc7f40
7fffc0
3f8f80
ENDCHAR
STARTCHAR b
ENCODING 98
SWIDTH 648 0
DWIDTH 21 0
BBX 19 25 0 0
BITMAP
ff0000
ff0000
1f0000
1f0000
1f0000
1f0000
1f0000
1f0000
1f0000
1f3f00
1fff80
1fcfc0
1f87c0
1f03e0
1f03e0
1f03e0
1f03e0
1f03e0
1f03e0
1f03e0
1f03c0
1f07c0
1f8f80
1dff00
187c00
ENDCHAR
STARTCHAR c
ENCODING 99
SWIDTH 556 0
DWIDTH 17 0
BBX 15 16 1 0
BITMAP
03f0
0ffc
3e3e
7c3e
7c3e
f81c
f800
f800
f800
f800
fc02
fc06
7e06
3f1c
1ff8
07e0
ENDCHAR
STARTCHAR d
ENCODING 100
SWIDTH 667 0
DWIDTH 22 0
BBX 20 25 1 0
BITMAP
007f80
007f80
001f80
000f80
000f80
000f80
000f80
000f80
000f80
0fcf80
1fef80
3e3f80
7c1f80
781f80
f80f80
f80f80
f80f80
f80f80
f80f80
f80f80
f81f80
7c1f80
7c7f80
3feff0
0f8ff0
ENDCHAR
STARTCHAR e
ENCODING 101
SWIDTH 574 0
DWIDTH 18 0
BBX 16 16 1 0
BITMAP
03e0
0ff8
3c3c
781e
781e
f81f
f81f
ffff
ffff
f800
f800
fc03
7c06
3f0e
1ffc
07f0
ENDCHAR
STARTCHAR f
ENCODING 102
SWIDTH 389 0
DWIDTH 13 0
BBX 15 25 0 0
BITMAP
00f0
03fc
079e
0f3e
0f3e
1f1c
1f00
1f00
1f00
fff0
fff0
1f00
1f00
1f00
1f00
1f00
1f00
1f00
1f00
1f00
1f00
1f00
1f00
ffe0
ffe0
ENDCHAR
STARTCHAR g
ENCODING 103
SWIDTH 611 0
DWIDTH 20 0
BBX 20 25 1 -7
BITMAP
0001e0
0003f0
07fff0
1f7ce0
3e3e00
7c1f00
7c1f00
7c1f00
7c1f00
7c1f00
3e3e00
1f7e00
1ff800
7c0000
f80000
fffc00
ffff00
3fff00
1fff80
7fff80
f00780
f00780
f80f00
7ffe00
0ff000
ENDCHAR
STARTCHAR h
ENCODING 104
SWIDTH 685 0
DWIDTH 22 0
BBX 20 25 1 0
BITMAP
fe0000
fe0000
3e0000
3e0000
3e0000
3e0000
3e0000
3e0000
3e0000
3e3e00
3eff80
3fff80
3f8fc0
3f07c0
3f07c0
3e07c0
3e07c0
3e07c0
3e07c0
3e07c0
3e07c0
3e07c0
3e07c0
ff9ff0
ff9ff0
ENDCHAR
STARTCHAR i
ENCODING 105
SWIDTH 370 0
DWIDTH 12 0
BBX 9 25 2 0
BITMAP
1c00
3e00
3e00
3e00
1c00
0000
0000
0000
0000
fe00
fe00
3e00
3e00
3e00
3e00
3e00
3e00
3e00
3e00
3e00
3e00
3e00
3e00
ff80
ff80
ENDCHAR
STARTCHAR j
ENCODING 106
SWIDTH 352 0
DWIDTH 12 0
BBX 12 32 -3 -7
BITMAP
00e0
01f0
01f0
01f0
00e0
0000
0000
0000
0000
07f0
07f0
01f0
01f0
01f0
01f0
01f0
01f0
01f0
01f0
01f0
01f0
01f0
01f0
01f0
01f0
01f0
71f0
f9e0
f9e0
fbc0
7f80
1e00
ENDCHAR
STARTCHAR k
ENCODING 107
SWIDTH 667 0
DWIDTH 22 0
BBX 20 25 1 0
BITMAP
fe0000
fe0000
3e0000
3e0000
3e0000
3e0000
3e0000
3e0000
3e0000
3e3fe0
3e3fe0
3e0f00
3e0e00
3e3c00
3e7000
3ef800
3ffc00
3ffe00
3f7e00
3e3f00
3e1f80
3e1fc0
3e0fe0
ffbff0
ffbff0
ENDCHAR
STARTCHAR l
ENCODING 108
SWIDTH 352 0
DWIDTH 12 0
BBX 10 25 1 0
BITMAP
fe00
fe00
3e00
3e00
3e00
3e00
3e00
3e00
3e00
3e00
3e00
3e00
3e00
3e00
3e00
3e00
3e00
3e00
3e00
3e00
3e00
3e00
3e00
ffc0
ffc0
ENDCHAR
STARTCHAR m
ENCODING 109
SWIDTH 963 0
DWIDTH 31 0
BBX 29 16 1 0
BITMAP
fe7e1f00
feff3fc0
3fffffc0
3f9fe7e0
3f0fc3e0
3e0f83e0
3e0f83e0
3e0f83e0
3e0f83e0
3e0f83e0
3e0f83e0
3e0f83e0
3e0f83e0
3e0f83e0
ffbfeff8
ffbfeff8
ENDCHAR
STARTCHAR n
ENCODING 110
SWIDTH 685 0
DWIDTH 22 0
BBX 20 16 1 0
BITMAP
fe3e00
feff80
3fff80
3f8fc0
3f07c0
3e07c0
3e07c0
3e07c0
3e07c0
3e07c0
3e07c0
3e07c0
3e07c0
3e07c0
ff9ff0
ff9ff0
ENDCHAR
STARTCHAR o
ENCODING 111
SWIDTH 611 0
DWIDTH 19 0
BBX 17 16 1 0
BITMAP
03e000
0ff800
3e3e00
7c1f00
7c1f00
f80f80
f80f80
f80f80
f80f80
f80f80
f80f80
7c1f00
7c1f00
3e3e00
0ff800
03e000
ENDCHAR
STARTCHAR p
ENCODING 112
SWIDTH 667 0
DWIDTH 21 0
BBX 19 23 1 -7
BITMAP
fe7e00
feff80
3f8fc0
3f07c0
3f07e0
3e03e0
3e03e0
3e03e0
3e03e0
3e03e0
3e03e0
3f07c0
3f07c0
3f8f80
3fff00
3e7e00
3e0000
3e0000
3e0000
3e0000
3e0000
ff8000
ff8000
ENDCHAR
STARTCHAR q
ENCODING 113
SWIDTH 648 0
DWIDTH 20 0
BBX 20 23 1 -7
BITMAP
07e180
1ff980
3e1f80
7c1f80
7c0f80
f80f80
f80f80
f80f80
f80f80
f80f80
f80f80
7c1f80
7c1f80
3e3f80
1fef80
07cf80
000f80
000f80
000f80
000f80
000f80
007ff0
007ff0
ENDCHAR
STARTCHAR r
ENCODING 114
SWIDTH 519 0
DWIDTH 16 0
BBX 15 16 1 0
BITMAP
fc7c
fcfe
3dfe
3dbe
3f3e
3e1c
3e00
3e00
3e00
3e00
3e00
3e00
3e00
3e00
ffc0
ffc0
ENDCHAR
STARTCHAR s
ENCODING 115
SWIDTH 500 0
DWIDTH 16 0
BBX 14 16 1 0
BITMAP
0fd8
3cf8
7038
f018
fe08
ffc0
fff0
7ff8
3ff8
0ffc
c0fc
c03c
e038
f878
fff0
cfc0
ENDCHAR
STARTCHAR t
ENCODING 116
SWIDTH 426 0
DWIDTH 14 0
BBX 12 23 1 0
BITMAP
0600
0600
0e00
0e00
0e00
1e00
3e00
ffe0
ffe0
3e00
3e00
3e00
3e00
3e00
3e00
3e00
3e30
3e30
3e30
3e60
3fe0
1fc0
0f80
ENDCHAR
STARTCHAR u
ENCODING 117
SWIDTH 685 0
DWIDTH 22 0
BBX 20 16 1 0
BITMAP
fe1fc0
fe1fc0
3e07c0
3e07c0
3e07c0
3e07c0
3e07c0
3e07c0
3e07c0
3e07c0
3e0fc0
3e0fc0
3f1fc0
1fffc0
1ff7f0
07c7f0
ENDCHAR
STARTCHAR v
ENCODING 118
SWIDTH 611 0
DWIDTH 19 0
BBX 19 16 0 0
BITMAP
ff8fe0
ff8fe0
3f03c0
3f0380
1f0300
1f8700
0f8600
0fc600
07cc00
07ec00
03f800
03f800
01f800
01f000
00f000
00e000
ENDCHAR
STARTCHAR w
ENCODING 119
SWIDTH 889 0
DWIDTH 29 0
BBX 27 16 1 0
BITMAP
ffbfefe0
ffbfefe0
7e1f83c0
3e0f8380
3f0f8300
1f0fc300
1f8fc600
0f9fe600
0f9be600
0ffbec00
07f1fc00
07f1f800
03e1f800
03e0f000
01c0f000
01c06000
ENDCHAR
STARTCHAR x
ENCODING 120
SWIDTH 611 0
DWIDTH 19 0
BBX 19 16 0 0
BITMAP
ffdfe0
ffdfe0
3f0700
1f8e00
1fdc00
0ff800
07f000
03f000
01f800
03fc00
07fe00
0e7e00
1c3f00
3c3f80
ff7fe0
ff7fe0
ENDCHAR
STARTCHAR y
ENCODING 121
SWIDTH 611 0
DWIDTH 19 0
BBX 19 23 0 -7
BITMAP
ff8fe0
ff8fe0
3f0380
3f0380
1f0300
1f8700
0f8600
0fc600
07cc00
07ec00
03f800
03f800
01f800
01f000
00f000
00e000
006000
70c000
f8c000
f98000
ff0000
7f0000
3c0000
ENDCHAR
STARTCHAR z
ENCODING 122
SWIDTH 537 0
DWIDTH 16 0
BBX 14 16 1 0
BITMAP
7ffc
7ffc
70fc
61f8
61f8
43f0
07e0
07e0
0fc0
1f80
1f0c
3f0c
7e1c
7c1c
fffc
fffc
ENDCHAR
STARTCHAR braceleft
ENCODING 123
SWIDTH 389 0
DWIDTH 13 0
BBX 8 30 3 -4
BITMAP
03
0e
1c
3c
3c
3c
3c
3c
3c
3c
3c
3c
3c
38
f0
f8
3c
3c
3c
3c
3c
3c
3c
3c
3c
3c
3c
1c
0e
03
ENDCHAR
STARTCHAR bar
ENCODING 124
SWIDTH 606 0
DWIDTH 20 0
BBX 4 25 8 0
BITMAP
f0
f0
f0
f0
f0
f0
f0
f0
f0
f0
f0
f0
f0
f0
f0
f0
f0
f0
f0
f0
f0
f0
f0
f0
f0
ENDCHAR
STARTCHAR braceright
ENCODING 125
SWIDTH 389 0
DWIDTH 13 0
BBX 8 28 1 -3
BITMAP
e0
78
3c
3c
3c
3c
3c
3c
3c
3c
3c
3c
1c
0f
1f
3c
3c
3c
3c
3c
3c
3c
3c
3c
3c
3c
78
e0
ENDCHAR
STARTCHAR asciitilde
ENCODING 126
SWIDTH 606 0
DWIDTH 20 0
BBX 16 6 2 6
BITMAP
0e04
3f8e
7fff
fffe
71fc
2070
ENDCHAR
STARTCHAR nobreakspace
ENCODING 160
SWIDTH 287 0
DWIDTH 9 0
BBX 1 1 1 0
BITMAP
00
ENDCHAR
STARTCHAR Aogonek
ENCODING 161
SWIDTH 759 0
DWIDTH 25 0
BBX 25 31 0 -6
BITMAP
001c0000
001c0000
001e0000
003e0000
003f0000
007f0000
007f8000
007f8000
00ff8000
00cfc000
01cfc000
018fc000
0187e000
0387e000
0307f000
0703f000
07fff000
07fff800
0e01f800
0c01fc00
1c00fc00
1c00fe00
3e00fe00
ff83ff80
ff83ff80
000c0000
001c0000
00380000
00390000
003f0000
001e0000
ENDCHAR
STARTCHAR breve
ENCODING 162
SWIDTH 333 0
DWIDTH 11 0
BBX 10 6 0 18
BITMAP
c0c0
c0c0
e1c0
7f80
7f80
1e00
ENDCHAR
STARTCHAR Lstroke
ENCODING 163
SWIDTH 722 0
DWIDTH 23 0
BBX 21 25 1 0
BITMAP
fff000
fff000
1f8000
1f8000
1f8000
1f8000
1f8000
1f9800
1fb800
1ff000
1fc000
1f8000
1f8000
1f8000
7f8000
ff8000
df8018
1f8018
1f8018
1f8038
1f8038
1f8078
1f81f8
fffff8
fffff8
ENDCHAR
STARTCHAR currency
ENCODING 164
SWIDTH 606 0
DWIDTH 19 0
BBX 16 16 1 3
BITMAP
63c6
f7ef
fffe
7ffc
3c3e
781e
700e
700e
700e
700e
781e
3c3c
7ffe
ffff
f7ef
63c6
ENDCHAR
STARTCHAR Lcaron
ENCODING 165
SWIDTH 722 0
DWIDTH 23 0
BBX 21 29 1 0
BITMAP
0003c0
0007e0
0007e0
0007e0
fff7e0
fff3e0
1f80e0
1f80c0
1f81c0
1f8380
1f8700
1f8600
1f8000
1f8000
1f8000
1f8000
1f8000
1f8000
1f8000
1f8000
1f8018
1f8018
1f8018
1f8038
1f8038
1f8078
1f81f8
fffff8
fffff8
ENDCHAR
STARTCHAR Sacute
ENCODING 166
SWIDTH 667 0
DWIDTH 21 0
BBX 19 32 1 0
BITMAP
000600
000f00
001f00
003e00
007800
006000
000000
03f0c0
1ffdc0
3c1fc0
7807c0
7003c0
f001c0
f000c0
f800c0
ff00c0
fff000
7ffe00
7fff00
3fff80
0fffc0
07ffe0
407fe0
6007e0
6003e0
7001e0
7801e0
7801c0
7e03c0
7f0780
67ff00
61fc00
ENDCHAR
STARTCHAR section
ENCODING 167
SWIDTH 500 0
DWIDTH 16 0
BBX 12 29 2 -3
BITMAP
1f00
7380
63c0
e3c0
e3c0
f180
7800
7c00
3e00
1e00
3f00
6f80
c7c0
e3e0
e1e0
f0f0
7870
7c70
3e60
1fc0
0f80
07c0
03e0
61e0
f0e0
f0e0
f0e0
79c0
3f00
ENDCHAR
STARTCHAR diaeresis
ENCODING 168
SWIDTH 333 0
DWIDTH 11 0
BBX 11 5 0 18
BITMAP
60c0
f1e0
f1e0
f1e0
60c0
ENDCHAR
STARTCHAR Scaron
ENCODING 169
SWIDTH 667 0
DWIDTH 21 0
BBX 19 31 1 0
BITMAP
0e0e00
071c00
03b800
01f000
00e000
000000
03f0c0
1ffdc0
3c1fc0
7807c0
7003c0
f001c0
f000c0
f800c0
ff00c0
fff000
7ffe00
7fff00
3fff80
0fffc0
07ffe0
407fe0
6007e0
6003e0
7001e0
7801e0
7801c0
7e03c0
7f0780
67ff00
61fc00
ENDCHAR
STARTCHAR Scedilla
ENCODING 170
SWIDTH 667 0
DWIDTH 21 0
BBX 19 32 1 -7
BITMAP
03f0c0
1ffdc0
3c1fc0
7807c0
7003c0
f001c0
f000c0
f800c0
ff00c0
fff000
7ffe00
7fff00
3fff80
0fffc0
07ffe0
407fe0
6007e0
6003e0
7001e0
7801e0
7801c0
7e03c0
7f0780
67ff00
61fc00
006000
00c000
01f000
003800
003800
037000
01e000
ENDCHAR
STARTCHAR Tcaron
ENCODING 171
SWIDTH 722 0
DWIDTH 23 0
BBX 21 31 1 0
BITMAP
070700
038e00
01dc00
00f800
007000
000000
fffff8
fffff8
f1f878
e1f838
e1f838
c1f818
c1f818
c1f818
81f808
81f808
01f800
01f800
01f800
01f800
01f800
01f800
01f800
01f800
01f800
01f800
01f800
01f800
01f800
0fff80
0fff80
ENDCHAR
STARTCHAR Zacute
ENCODING 172
SWIDTH 667 0
DWIDTH 21 0
BBX 19 32 1 0
BITMAP
000600
000f00
001f00
003e00
007800
006000
000000
7fffe0
7fffe0
7e0fe0
780fe0
701fc0
701f80
603f80
607f00
407e00
00fe00
01fc00
01fc00
03f800
03f000
07f000
0fe020
0fe060
1fc060
1f8060
3f80e0
7f00e0
7f01e0
fe07e0
ffffe0
ffffe0
ENDCHAR
STARTCHAR hyphen
ENCODING 173
SWIDTH 333 0
DWIDTH 11 0
BBX 8 4 1 6
BITMAP
ff
ff
ff
ff
ENDCHAR
STARTCHAR Zcaron
ENCODING 174
SWIDTH 667 0
DWIDTH 21 0
BBX 19 31 1 0
BITMAP
0e0e00
071c00
03b800
01f000
00e000
000000
7fffe0
7fffe0
7e0fe0
780fe0
701fc0
701f80
603f80
607f00
407e00
00fe00
01fc00
01fc00
03f800
03f000
07f000
0fe020
0fe060
1fc060
1f8060
3f80e0
7f00e0
7f01e0
fe07e0
ffffe0
ffffe0
ENDCHAR
STARTCHAR Zabovedot
ENCODING 175
SWIDTH 667 0
DWIDTH 21 0
BBX 19 31 1 0
BITMAP
006000
00f000
00f000
00f000
006000
000000
7fffe0
7fffe0
7e0fe0
780fe0
701fc0
701f80
603f80
607f00
407e00
00fe00
01fc00
01fc00
03f800
03f000
07f000
0fe020
0fe060
1fc060
1f8060
3f80e0
7f00e0
7f01e0
fe07e0
ffffe0
ffffe0
ENDCHAR
STARTCHAR degree
ENCODING 176
SWIDTH 400 0
DWIDTH 13 0
BBX 9 10 2 13
BITMAP
3e00
7f00
6300
c180
c180
c180
c180
6300
7f00
3e00
ENDCHAR
STARTCHAR aogonek
ENCODING 177
SWIDTH 611 0
DWIDTH 20 0
BBX 18 22 1 -6
BITMAP
0ff000
3ffc00
787e00
7c3e00
7c3e00
383e00
003e00
03fe00
1fbe00
7e3e00
7c3e00
fc3e00
fc3e00
fc7f40
7fffc0
3f8f80
00c000
01c000
038000
039000
03f000
01e000
ENDCHAR
STARTCHAR ogonek
ENCODING 178
SWIDTH 333 0
DWIDTH 11 0
BBX 6 6 2 -6
BITMAP
30
70
e0
e4
fc
78
ENDCHAR
STARTCHAR lstroke
ENCODING 179
SWIDTH 352 0
DWIDTH 12 0
BBX 11 25 0 0
BITMAP
7f00
7f00
1f00
1f00
1f00
1f00
1f00
1f00
1f60
1fe0
1f80
1f00
3f00
ff00
df00
1f00
1f00
1f00
1f00
1f00
1f00
1f00
1f00
7fe0
7fe0
ENDCHAR
STARTCHAR acute
ENCODING 180
SWIDTH 333 0
DWIDTH 11 0
BBX 7 6 2 17
BITMAP
0c
1e
3e
7c
f0
c0
ENDCHAR
STARTCHAR lcaron
ENCODING 181
SWIDTH 480 0
DWIDTH 16 0
BBX 14 29 1 0
BITMAP
0078
00fc
00fc
00fc
fefc
fe7c
3e1c
3e18
3e38
3e70
3ee0
3ec0
3e00
3e00
3e00
3e00
3e00
3e00
3e00
3e00
3e00
3e00
3e00
3e00
3e00
3e00
3e00
ffc0
ffc0
ENDCHAR
STARTCHAR sacute
ENCODING 182
SWIDTH 500 0
DWIDTH 16 0
BBX 14 23 1 0
BITMAP
0030
0078
00f8
01f0
03c0
0300
0000
0fd8
3cf8
7038
f018
fe08
ffc0
fff0
7ff8
3ff8
0ffc
c0fc
c03c
e038
f878
fff0
cfc0
ENDCHAR
STARTCHAR caron
ENCODING 183
SWIDTH 333 0
DWIDTH 11 0
BBX 11 5 0 18
BITMAP
e0e0
71c0
3b80
1f00
0e00
ENDCHAR
STARTCHAR cedilla
ENCODING 184
SWIDTH 333 0
DWIDTH 11 0
BBX 7 7 1 -7
BITMAP
18
30
7c
0e
0e
dc
78
ENDCHAR
STARTCHAR scaron
ENCODING 185
SWIDTH 500 0
DWIDTH 16 0
BBX 14 22 1 0
BITMAP
7070
38e0
1dc0
0f80
0700
0000
0fd8
3cf8
7038
f018
fe08
ffc0
fff0
7ff8
3ff8
0ffc
c0fc
c03c
e038
f878
fff0
cfc0
ENDCHAR
STARTCHAR scedilla
ENCODING 186
SWIDTH 500 0
DWIDTH 16 0
BBX 14 23 1 -7
BITMAP
0fd8
3cf8
7038
f018
fe08
ffc0
fff0
7ff8
3ff8
0ffc
c0fc
c03c
e038
f878
fff0
cfc0
0300
0600
0f80
01c0
01c0
1b80
0f00
ENDCHAR
STARTCHAR tcaron
ENCODING 187
SWIDTH 480 0
DWIDTH 16 0
BBX 14 29 1 0
BITMAP
0078
00fc
00fc
00fc
00fc
007c
061c
0618
0e38
0e70
0ee0
1ec0
3e00
ffe0
ffe0
3e00
3e00
3e00
3e00
3e00
3e00
3e00
3e30
3e30
3e30
3e60
3fe0
1fc0
0f80
ENDCHAR
STARTCHAR zacute
ENCODING 188
SWIDTH 537 0
DWIDTH 16 0
BBX 14 23 1 0
BITMAP
0018
003c
007c
00f8
01e0
0180
0000
7ffc
7ffc
70fc
61f8
61f8
43f0
07e0
07e0
0fc0
1f80
1f0c
3f0c
7e1c
7c1c
fffc
fffc
ENDCHAR
STARTCHAR doubleacute
ENCODING 189
SWIDTH 333 0
DWIDTH 11 0
BBX 9 7 1 17
BITMAP
3180
7380
7380
7380
e700
c600
c600
ENDCHAR
STARTCHAR zcaron
ENCODING 190
SWIDTH 537 0
DWIDTH 16 0
BBX 14 22 1 0
BITMAP
3838
1c70
0ee0
07c0
0380
0000
7ffc
7ffc
70fc
61f8
61f8
43f0
07e0
07e0
0fc0
1f80
1f0c
3f0c
7e1c
7c1c
fffc
fffc
ENDCHAR
STARTCHAR zabovedot
ENCODING 191
SWIDTH 537 0
DWIDTH 16 0
BBX 14 22 1 0
BITMAP
0180
03c0
03c0
03c0
0180
0000
7ffc
7ffc
70fc
61f8
61f8
43f0
07e0
07e0
0fc0
1f80
1f0c
3f0c
7e1c
7c1c
fffc
fffc
ENDCHAR
STARTCHAR Racute
ENCODING 192
SWIDTH 815 0
DWIDTH 27 0
BBX 25 32 1 0
BITMAP
00030000
00078000
000f8000
001f0000
003c0000
00300000
00000000
ffff8000
fffff000
1f83f800
1f81f800
1f80fc00
1f80fc00
1f80fc00
1f80fc00
1f80fc00
1f81f800
1f81f000
1f87c000
1fff0000
1fffc000
1f87e000
1f83e000
1f83f000
1f83f000
1f83f000
1f83f980
1f81f980
1f81fb00
1f81ff00
fff0fe00
fff07c00
ENDCHAR
STARTCHAR Aacute
ENCODING 193
SWIDTH 759 0
DWIDTH 25 0
BBX 25 32 0 0
BITMAP
00018000
0003c000
0007c000
000f8000
001e0000
00180000
00000000
001c0000
001c0000
001e0000
003e0000
003f0000
007f0000
007f8000
007f8000
00ff8000
00cfc000
01cfc000
018fc000
0187e000
0387e000
0307f000
0703f000
07fff000
07fff800
0e01f800
0c01fc00
1c00fc00
1c00fe00
3e00fe00
ff83ff80
ff83ff80
ENDCHAR
STARTCHAR Acircumflex
ENCODING 194
SWIDTH 759 0
DWIDTH 25 0
BBX 25 31 0 0
BITMAP
001c0000
003e0000
007f0000
00e38000
0180c000
00000000
001c0000
001c0000
001e0000
003e0000
003f0000
007f0000
007f8000
007f8000
00ff8000
00cfc000
01cfc000
018fc000
0187e000
0387e000
0307f000
0703f000
07fff000
07fff800
0e01f800
0c01fc00
1c00fc00
1c00fe00
3e00fe00
ff83ff80
ff83ff80
ENDCHAR
STARTCHAR Abreve
ENCODING 195
SWIDTH 759 0
DWIDTH 25 0
BBX 25 32 0 0
BITMAP
00c0c000
00c0c000
00e1c000
007f8000
007f8000
001e0000
00000000
001c0000
001c0000
001e0000
003e0000
003f0000
007f0000
007f8000
007f8000
00ff8000
00cfc000
01cfc000
018fc000
0187e000
0387e000
0307f000
0703f000
07fff000
07fff800
0e01f800
0c01fc00
1c00fc00
1c00fe00
3e00fe00
ff83ff80
ff83ff80
ENDCHAR
STARTCHAR Adiaeresis
ENCODING 196
SWIDTH 759 0
DWIDTH 25 0
BBX 25 31 0 0
BITMAP
00c18000
01e3c000
01e3c000
01e3c000
00c18000
00000000
001c0000
001c0000
001e0000
003e0000
003f0000
007f0000
007f8000
007f8000
00ff8000
00cfc000
01cfc000
018fc000
0187e000
0387e000
0307f000
0703f000
07fff000
07fff800
0e01f800
0c01fc00
1c00fc00
1c00fe00
3e00fe00
ff83ff80
ff83ff80
ENDCHAR
STARTCHAR Lacute
ENCODING 197
SWIDTH 722 0
DWIDTH 23 0
BBX 21 32 1 0
BITMAP
006000
00f000
01f000
03e000
078000
060000
000000
fff000
fff000
1f8000
1f8000
1f8000
1f8000
1f8000
1f8000
1f8000
1f8000
1f8000
1f8000
1f8000
1f8000
1f8000
1f8000
1f8018
1f8018
1f8018
1f8038
1f8038
1f8078
1f81f8
fffff8
fffff8
ENDCHAR
STARTCHAR Cacute
ENCODING 198
SWIDTH 778 0
DWIDTH 24 0
BBX 22 32 1 0
BITMAP
0000c0
0001e0
0003e0
0007c0
000f00
000c00
000000
007e18
03ffb8
07c1f8
1f80f8
1f0078
3e0038
7e0038
7e0018
fe0018
fc0008
fc0000
fc0000
fc0000
fc0000
fc0000
fe0000
fe000c
fe001c
7e0018
7e0038
3f0030
1f8070
0fc1e0
07ffc0
00ff00
ENDCHAR
STARTCHAR Ccedilla
ENCODING 199
SWIDTH 778 0
DWIDTH 24 0
BBX 22 32 1 -7
BITMAP
007e18
03ffb8
07c1f8
1f80f8
1f0078
3e0038
7e0038
7e0018
fe0018
fc0008
fc0000
fc0000
fc0000
fc0000
fc0000
fe0000
fe000c
fe001c
7e0018
7e0038
3f0030
1f8070
0fc1e0
07ffc0
00ff00
003000
006000
00f800
001c00
001c00
01b800
00f000
ENDCHAR
STARTCHAR Ccaron
ENCODING 200
SWIDTH 778 0
DWIDTH 24 0
BBX 22 31 1 0
BITMAP
01c1c0
00e380
007700
003e00
001c00
000000
007e18
03ffb8
07c1f8
1f80f8
1f0078
3e0038
7e0038
7e0018
fe0018
fc0008
fc0000
fc0000
fc0000
fc0000
fc0000
fe0000
fe000c
fe001c
7e0018
7e0038
3f0030
1f8070
0fc1e0
07ffc0
00ff00
ENDCHAR
STARTCHAR Eacute
ENCODING 201
SWIDTH 759 0
DWIDTH 23 0
BBX 21 32 1 0
BITMAP
000300
000780
000f80
001f00
003c00
003000
000000
fffff8
fffff8
1f81f8
1f80f8
1f8078
1f8038
1f8038
1f8618
1f8618
1f8e00
1f8e00
1f9e00
1ffe00
1ffe00
1f9e00
1f8e00
1f8618
1f8618
1f8618
1f8038
1f8038
1f8078
1f81f8
fffff8
fffff8
ENDCHAR
STARTCHAR Eogonek
ENCODING 202
SWIDTH 759 0
DWIDTH 23 0
BBX 21 31 1 -6
BITMAP
fffff8
fffff8
1f81f8
1f80f8
1f8078
1f8038
1f8038
1f8618
1f8618
1f8e00
1f8e00
1f9e00
1ffe00
1ffe00
1f9e00
1f8e00
1f8618
1f8618
1f8618
1f8038
1f8038
1f8078
1f81f8
fffff8
fffff8
003000
007000
00e000
00e400
00fc00
007800
ENDCHAR
STARTCHAR Ediaeresis
ENCODING 203
SWIDTH 759 0
DWIDTH 23 0
BBX 21 32 1 0
BITMAP
018300
03c780
03c780
03c780
018300
000000
000000
fffff8
fffff8
1f81f8
1f80f8
1f8078
1f8038
1f8038
1f8618
1f8618
1f8e00
1f8e00
1f9e00
1ffe00
1ffe00
1f9e00
1f8e00
1f8618
1f8618
1f8618
1f8038
1f8038
1f8078
1f81f8
fffff8
fffff8
ENDCHAR
STARTCHAR Ecaron
ENCODING 204
SWIDTH 759 0
DWIDTH 23 0
BBX 21 31 1 0
BITMAP
070700
038e00
01dc00
00f800
007000
000000
fffff8
fffff8
1f81f8
1f80f8
1f8078
1f8038
1f8038
1f8618
1f8618
1f8e00
1f8e00
1f9e00
1ffe00
1ffe00
1f9e00
1f8e00
1f8618
1f8618
1f8618
1f8038
1f8038
1f8078
1f81f8
fffff8
fffff8
ENDCHAR
STARTCHAR Iacute
ENCODING 205
SWIDTH 444 0
DWIDTH 14 0
BBX 12 33 1 0
BITMAP
00c0
01e0
03e0
07c0
0f00
0c00
0000
0000
fff0
fff0
1f80
1f80
1f80
1f80
1f80
1f80
1f80
1f80
1f80
1f80
1f80
1f80
1f80
1f80
1f80
1f80
1f80
1f80
1f80
1f80
1f80
fff0
fff0
ENDCHAR
STARTCHAR Icircumflex
ENCODING 206
SWIDTH 444 0
DWIDTH 14 0
BBX 12 32 1 0
BITMAP
0700
0f80
1fc0
38e0
6030
0000
0000
fff0
fff0
1f80
1f80
1f80
1f80
1f80
1f80
1f80
1f80
1f80
1f80
1f80
1f80
1f80
1f80
1f80
1f80
1f80
1f80
1f80
1f80
1f80
fff0
fff0
ENDCHAR
STARTCHAR Dcaron
ENCODING 207
SWIDTH 833 0
DWIDTH 26 0
BBX 24 31 1 0
BITMAP
0e0e00
071c00
03b800
01f000
00e000
000000
ffff00
ffffe0
1f83f0
1f81f8
1f80fc
1f807e
1f807e
1f807f
1f803f
1f803f
1f803f
1f803f
1f803f
1f803f
1f803f
1f803f
1f807f
1f807e
1f807e
1f807e
1f80fc
1f81f8
1f83f0
ffffe0
ffff00
ENDCHAR
STARTCHAR Dstroke
ENCODING 208
SWIDTH 833 0
DWIDTH 26 0
BBX 24 25 1 0
BITMAP
ffff00
ffffe0
1f83f0
1f81f8
1f80fc
1f807c
1f807e
1f807e
1f807f
1f803f
1f803f
1f803f
fff83f
fff83f
1f803f
1f803f
1f803f
1f807f
1f807e
1f807e
1f80fc
1f80f8
1f83f0
ffffe0
ffff00
ENDCHAR
STARTCHAR Nacute
ENCODING 209
SWIDTH 833 0
DWIDTH 27 0
BBX 27 32 0 0
BITMAP
00006000
0000f000
0001f000
0003e000
00078000
00060000
00000000
ff807fe0
ffc07fe0
3fe00f00
0fe00600
0ff00600
0ff80600
0ffc0600
0dfe0600
0cfe0600
0cff0600
0c7f8600
0c3fc600
0c1fe600
0c0fe600
0c0ff600
0c07fe00
0c03fe00
0c01fe00
0c00fe00
0c007e00
0c007e00
0c003e00
1e001e00
ffc00e00
ffc00600
ENDCHAR
STARTCHAR Ncaron
ENCODING 210
SWIDTH 833 0
DWIDTH 27 0
BBX 27 31 0 0
BITMAP
00e0e000
0071c000
003b8000
001f0000
000e0000
00000000
ff807fe0
ffc07fe0
3fe00f00
0fe00600
0ff00600
0ff80600
0ffc0600
0dfe0600
0cfe0600
0cff0600
0c7f8600
0c3fc600
0c1fe600
0c0fe600
0c0ff600
0c07fe00
0c03fe00
0c01fe00
0c00fe00
0c007e00
0c007e00
0c003e00
1e001e00
ffc00e00
ffc00600
ENDCHAR
STARTCHAR Oacute
ENCODING 211
SWIDTH 833 0
DWIDTH 26 0
BBX 24 32 1 0
BITMAP
0000c0
0001e0
0003e0
0007c0
000f00
000c00
000000
007e00
03ffc0
0fc1f0
1f80f8
3f00fc
3e007c
7e007e
7e007e
fc003f
fc003f
fc003f
fc003f
fc003f
fc003f
fc003f
fc003f
fc003f
7e007e
7e007e
3e007c
3f00fc
1f80f8
0fc1f0
03ffc0
007e00
ENDCHAR
STARTCHAR Ocircumflex
ENCODING 212
SWIDTH 833 0
DWIDTH 26 0
BBX 24 32 1 0
BITMAP
001c00
003e00
007f00
00e380
0180c0
000000
000000
007e00
03ffc0
0fc1f0
1f80f8
3f00fc
3e007c
7e007e
7e007e
fc003f
fc003f
fc003f
fc003f
fc003f
fc003f
fc003f
fc003f
fc003f
7e007e
7e007e
3e007c
3f00fc
1f80f8
0fc1f0
03ffc0
007e00
ENDCHAR
STARTCHAR Odoubleacute
ENCODING 213
SWIDTH 833 0
DWIDTH 26 0
BBX 24 33 1 0
BITMAP
003180
007380
007380
007380
00e700
00c600
00c600
000000
007e00
03ffc0
0fc1f0
1f80f8
3f00fc
3e007c
7e007e
7e007e
fc003f
fc003f
fc003f
fc003f
fc003f
fc003f
fc003f
fc003f
fc003f
7e007e
7e007e
3e007c
3f00fc
1f80f8
0fc1f0
03ffc0
007e00
ENDCHAR
STARTCHAR Odiaeresis
ENCODING 214
SWIDTH 833 0
DWIDTH 26 0
BBX 24 32 1 0
BITMAP
00c180
01e3c0
01e3c0
01e3c0
00c180
000000
000000
007e00
03ffc0
0fc1f0
1f80f8
3f00fc
3e007c
7e007e
7e007e
fc003f
fc003f
fc003f
fc003f
fc003f
fc003f
fc003f
fc003f
fc003f
7e007e
7e007e
3e007c
3f00fc
1f80f8
0fc1f0
03ffc0
007e00
ENDCHAR
STARTCHAR multiply
ENCODING 215
SWIDTH 606 0
DWIDTH 20 0
BBX 16 17 2 0
BITMAP
2004
700e
f81f
fc3f
7e7e
3ffc
1ff8
0ff0
07e0
0ff0
1ff8
3ffc
7e7e
fc3f
f81f
700e
2004
ENDCHAR
STARTCHAR Rcaron
ENCODING 216
SWIDTH 815 0
DWIDTH 27 0
BBX 25 31 1 0
BITMAP
07070000
038e0000
01dc0000
00f80000
00700000
00000000
ffff8000
fffff000
1f83f800
1f81f800
1f80fc00
1f80fc00
1f80fc00
1f80fc00
1f80fc00
1f81f800
1f81f000
1f87c000
1fff0000
1fffc000
1f87e000
1f83e000
1f83f000
1f83f000
1f83f000
1f83f980
1f81f980
1f81fb00
1f81ff00
fff0fe00
fff07c00
ENDCHAR
STARTCHAR Uring
ENCODING 217
SWIDTH 833 0
DWIDTH 28 0
BBX 26 32 1 0
BITMAP
003e0000
00770000
00630000
00630000
00770000
003e0000
00000000
fff0ffc0
fff0ffc0
1f801e00
1f800c00
1f800c00
1f800c00
1f800c00
1f800c00
1f800c00
1f800c00
1f800c00
1f800c00
1f800c00
1f800c00
1f800c00
1f800c00
1f800c00
1f800c00
1f800c00
1f801c00
0fc01800
0fe03800
07f8f000
03ffe000
00ffc000
ENDCHAR
STARTCHAR Uacute
ENCODING 218
SWIDTH 833 0
DWIDTH 28 0
BBX 26 32 1 0
BITMAP
00006000
0000f000
0001f000
0003e000
00078000
00060000
00000000
fff0ffc0
fff0ffc0
1f801e00
1f800c00
1f800c00
1f800c00
1f800c00
1f800c00
1f800c00
1f800c00
1f800c00
1f800c00
1f800c00
1f800c00
1f800c00
1f800c00
1f800c00
1f800c00
1f800c00
1f801c00
0fc01800
0fe03800
07f8f000
03ffe000
00ffc000
ENDCHAR
STARTCHAR Udoubleacute
ENCODING 219
SWIDTH 833 0
DWIDTH 28 0
BBX 26 33 1 0
BITMAP
0018c000
0039c000
0039c000
0039c000
00738000
00630000
00630000
00000000
fff0ffc0
fff0ffc0
1f801e00
1f800c00
1f800c00
1f800c00
1f800c00
1f800c00
1f800c00
1f800c00
1f800c00
1f800c00
1f800c00
1f800c00
1f800c00
1f800c00
1f800c00
1f800c00
1f800c00
1f801c00
0fc01800
0fe03800
07f8f000
03ffe000
00ffc000
ENDCHAR
STARTCHAR Udiaeresis
ENCODING 220
SWIDTH 833 0
DWIDTH 28 0
BBX 26 32 1 0
BITMAP
00306000
0078f000
0078f000
0078f000
00306000
00000000
00000000
fff0ffc0
fff0ffc0
1f801e00
1f800c00
1f800c00
1f800c00
1f800c00
1f800c00
1f800c00
1f800c00
1f800c00
1f800c00
1f800c00
1f800c00
1f800c00
1f800c00
1f800c00
1f800c00
1f800c00
1f801c00
0fc01800
0fe03800
07f8f000
03ffe000
00ffc000
ENDCHAR
STARTCHAR Yacute
ENCODING 221
SWIDTH 722 0
DWIDTH 24 0
BBX 24 33 0 0
BITMAP
000060
0000f0
0001f0
0003e0
000780
000600
000000
000000
fff1ff
fff1ff
3f807c
1fc038
1fc070
0fe070
0fe0e0
07f0c0
03f1c0
03f980
01fb80
01ff00
00ff00
007e00
007e00
007e00
007e00
007e00
007e00
007e00
007e00
007e00
007e00
03ffc0
03ffc0
ENDCHAR
STARTCHAR Tcedilla
ENCODING 222
SWIDTH 722 0
DWIDTH 23 0
BBX 21 32 1 -7
BITMAP
fffff8
fffff8
f1f878
e1f838
e1f838
c1f818
c1f818
c1f818
81f808
81f808
01f800
01f800
01f800
01f800
01f800
01f800
01f800
01f800
01f800
01f800
01f800
01f800
01f800
0fff80
0fff80
003000
006000
00f800
001c00
001c00
01b800
00f000
ENDCHAR
STARTCHAR ssharp
ENCODING 223
SWIDTH 611 0
DWIDTH 20 0
BBX 18 25 0 0
BITMAP
03fc00
07be00
0f0f00
0f0f00
1f0f80
1f0f80
1f0f80
1f0f00
1f0f00
1f0e00
1f1c00
1f7e00
1f0f80
1f0f80
1f07c0
1f07c0
1f07c0
1f07c0
1f07c0
1f07c0
1f0780
1f0780
1f4f00
fffe00
ff7800
ENDCHAR
STARTCHAR racute
ENCODING 224
SWIDTH 519 0
DWIDTH 16 0
BBX 15 23 1 0
BITMAP
0018
003c
007c
00f8
01e0
0180
0000
fc7c
fcfe
3dfe
3dbe
3f3e
3e1c
3e00
3e00
3e00
3e00
3e00
3e00
3e00
3e00
ffc0
ffc0
ENDCHAR
STARTCHAR aacute
ENCODING 225
SWIDTH 611 0
DWIDTH 20 0
BBX 18 23 1 0
BITMAP
006000
00f000
01f000
03e000
078000
060000
000000
0ff000
3ffc00
783e00
7c3e00
7c3e00
383e00
003e00
03fe00
1fbe00
7e3e00
7c3e00
fc3e00
fc3e00
fc7f40
7fffc0
3f8f80
ENDCHAR
STARTCHAR acircumflex
ENCODING 226
SWIDTH 611 0
DWIDTH 20 0
BBX 18 22 1 0
BITMAP
01c000
03e000
07f000
0e3800
180c00
000000
0ff000
3ffc00
783e00
7c3e00
7c3e00
383e00
003e00
03fe00
1fbe00
7e3e00
7c3e00
fc3e00
fc3e00
fc7f40
7fffc0
3f8f80
ENDCHAR
STARTCHAR abreve
ENCODING 227
SWIDTH 611 0
DWIDTH 20 0
BBX 18 23 1 0
BITMAP
181800
181800
1c3800
0ff000
0ff000
03c000
000000
0ff000
3ffc00
787e00
7c3e00
7c3e00
383e00
003e00
03fe00
1fbe00
7e3e00
7c3e00
fc3e00
fc3e00
fc7f40
7fffc0
3f8f80
ENDCHAR
STARTCHAR adiaeresis
ENCODING 228
SWIDTH 611 0
DWIDTH 20 0
BBX 18 23 1 0
BITMAP
0c1800
1e3c00
1e3c00
1e3c00
0c1800
000000
000000
0ff000
3ffc00
783e00
7c3e00
7c3e00
383e00
003e00
03fe00
1fbe00
7e3e00
7c3e00
fc3e00
fc3e00
fc7f40
7fffc0
3f8f80
ENDCHAR
STARTCHAR lacute
ENCODING 229
SWIDTH 352 0
DWIDTH 12 0
BBX 10 32 1 0
BITMAP
0180
03c0
07c0
0f80
1e00
1800
0000
fe00
fe00
3e00
3e00
3e00
3e00
3e00
3e00
3e00
3e00
3e00
3e00
3e00
3e00
3e00
3e00
3e00
3e00
3e00
3e00
3e00
3e00
3e00
ffc0
ffc0
ENDCHAR
STARTCHAR cacute
ENCODING 230
SWIDTH 556 0
DWIDTH 17 0
BBX 15 23 1 0
BITMAP
000c
001e
003e
007c
00f0
00c0
0000
03f0
0ffc
3e3e
7c3e
7c3e
f81c
f800
f800
f800
f800
fc02
fc06
7e06
3f1c
1ff8
07e0
ENDCHAR
STARTCHAR ccedilla
ENCODING 231
SWIDTH 556 0
DWIDTH 17 0
BBX 15 23 1 -7
BITMAP
03f0
0e3c
3e3e
7c3e
7c3e
f81c
f800
f800
f800
f800
fc02
fc06
7e06
3f1c
1ff8
07f0
0180
0300
07c0
00e0
00e0
0dc0
0780
ENDCHAR
STARTCHAR ccaron
ENCODING 232
SWIDTH 556 0
DWIDTH 17 0
BBX 15 22 1 0
BITMAP
1c1c
0e38
0770
03e0
01c0
0000
03f0
0ffc
3e3e
7c3e
7c3e
f81c
f800
f800
f800
f800
fc02
fc06
7e06
3f1c
1ff8
07e0
ENDCHAR
STARTCHAR eacute
ENCODING 233
SWIDTH 574 0
DWIDTH 18 0
BBX 16 23 1 0
BITMAP
0030
0078
00f8
01f0
03c0
0300
0000
03e0
0e78
3c3c
7c1e
7c1e
f81f
f81f
ffff
ffff
f800
f800
fc03
7c06
3f0e
1ffc
07f0
ENDCHAR
STARTCHAR eogonek
ENCODING 234
SWIDTH 574 0
DWIDTH 18 0
BBX 16 22 1 -6
BITMAP
03e0
0ff8
3c3c
781e
781e
f81f
f81f
ffff
ffff
f800
f800
fc03
7c06
3f0e
1ffc
07f0
0180
0380
0700
0720
07e0
03c0
ENDCHAR
STARTCHAR ediaeresis
ENCODING 235
SWIDTH 574 0
DWIDTH 18 0
BBX 16 23 1 0
BITMAP
0c18
1e3c
1e3c
1e3c
0c18
0000
0000
03e0
0e78
3c3c
7c1e
7c1e
f81f
f81f
ffff
ffff
f800
f800
fc03
7c06
3f0e
1ffc
07f0
ENDCHAR
STARTCHAR ecaron
ENCODING 236
SWIDTH 574 0
DWIDTH 18 0
BBX 16 22 1 0
BITMAP
3838
1c70
0ee0
07c0
0380
0000
03e0
0ff8
3c3c
781e
781e
f81f
f81f
ffff
ffff
f800
f800
fc03
7c06
3f0e
1ffc
07f0
ENDCHAR
STARTCHAR iacute
ENCODING 237
SWIDTH 370 0
DWIDTH 11 0
BBX 9 23 1 0
BITMAP
0600
0f00
1f00
3e00
7800
6000
0000
fe00
fe00
3e00
3e00
3e00
3e00
3e00
3e00
3e00
3e00
3e00
3e00
3e00
3e00
ff80
ff80
ENDCHAR
STARTCHAR icircumflex
ENCODING 238
SWIDTH 370 0
DWIDTH 11 0
BBX 11 22 -1 0
BITMAP
0e00
1f00
3f80
71c0
c060
0000
3f80
3f80
0f80
0f80
0f80
0f80
0f80
0f80
0f80
0f80
0f80
0f80
0f80
0f80
3fe0
3fe0
ENDCHAR
STARTCHAR dcaron
ENCODING 239
SWIDTH 780 0
DWIDTH 26 0
BBX 24 29 1 0
BITMAP
00001e
00003f
00003f
00003f
007fbf
007f9f
001f87
000f86
000f8e
000f9c
000fb8
000fb0
000f80
0fcf80
1fef80
3e3f80
7c1f80
781f80
f80f80
f80f80
f80f80
f80f80
f80f80
f80f80
f81f80
7c1f80
7c7f80
3feff0
0f8ff0
ENDCHAR
STARTCHAR dstroke
ENCODING 240
SWIDTH 690 0
DWIDTH 23 0
BBX 21 25 1 0
BITMAP
007f80
007f80
001f80
000f80
000f80
00fff8
00fff8
000f80
000f80
0fcf80
1fef80
3e3f80
7c1f80
781f80
f80f80
f80f80
f80f80
f80f80
f80f80
f80f80
f81f80
7c1f80
7c7f80
3feff0
0f8ff0
ENDCHAR
STARTCHAR nacute
ENCODING 241
SWIDTH 685 0
DWIDTH 22 0
BBX 20 23 1 0
BITMAP
000c00
001e00
003e00
007c00
00f000
00c000
000000
fe3e00
feff80
3fff80
3f8fc0
3f07c0
3e07c0
3e07c0
3e07c0
3e07c0
3e07c0
3e07c0
3e07c0
3e07c0
3e07c0
ff9ff0
ff9ff0
ENDCHAR
STARTCHAR ncaron
ENCODING 242
SWIDTH 685 0
DWIDTH 22 0
BBX 20 22 1 0
BITMAP
1c1c00
0e3800
077000
03e000
01c000
000000
fe3e00
feff80
3fff80
3f8fc0
3f07c0
3e07c0
3e07c0
3e07c0
3e07c0
3e07c0
3e07c0
3e07c0
3e07c0
3e07c0
ff9ff0
ff9ff0
ENDCHAR
STARTCHAR oacute
ENCODING 243
SWIDTH 611 0
DWIDTH 19 0
BBX 17 23 1 0
BITMAP
001800
003c00
007c00
00f800
01e000
018000
000000
03e000
0ff800
3e3e00
7c1f00
7c1f00
f80f80
f80f80
f80f80
f80f80
f80f80
f80f80
7c1f00
7c1f00
3e3e00
0ff800
03e000
ENDCHAR
STARTCHAR ocircumflex
ENCODING 244
SWIDTH 611 0
DWIDTH 19 0
BBX 17 22 1 0
BITMAP
01c000
03e000
07f000
0e3800
180c00
000000
03e000
0ff800
3e3e00
7c1f00
7c1f00
f80f80
f80f80
f80f80
f80f80
f80f80
f80f80
7c1f00
7c1f00
3e3e00
0ff800
03e000
ENDCHAR
STARTCHAR odoubleacute
ENCODING 245
SWIDTH 611 0
DWIDTH 19 0
BBX 17 24 1 0
BITMAP
018c00
039c00
039c00
039c00
073800
063000
063000
000000
03e000
0ff800
3e3e00
7c1f00
7c1f00
f80f80
f80f80
f80f80
f80f80
f80f80
f80f80
7c1f00
7c1f00
3e3e00
0ff800
03e000
ENDCHAR
STARTCHAR odiaeresis
ENCODING 246
SWIDTH 611 0
DWIDTH 19 0
BBX 17 23 1 0
BITMAP
0c1800
1e3c00
1e3c00
1e3c00
0c1800
000000
000000
03e000
0ff800
3e3e00
7c1f00
7c1f00
f80f80
f80f80
f80f80
f80f80
f80f80
f80f80
7c1f00
7c1f00
3e3e00
0ff800
03e000
ENDCHAR
STARTCHAR division
ENCODING 247
SWIDTH 606 0
DWIDTH 20 0
BBX 17 17 2 0
BITMAP
01c000
03e000
03e000
03e000
01c000
000000
ffff80
ffff80
ffff80
ffff80
000000
000000
01c000
03e000
03e000
03e000
01c000
ENDCHAR
STARTCHAR rcaron
ENCODING 248
SWIDTH 519 0
DWIDTH 16 0
BBX 15 22 1 0
BITMAP
3838
1c70
0ee0
07c0
0380
0000
fc7c
fcfe
3dfe
3dbe
3f3e
3e1c
3e00
3e00
3e00
3e00
3e00
3e00
3e00
3e00
ffc0
ffc0
ENDCHAR
STARTCHAR uring
ENCODING 249
SWIDTH 685 0
DWIDTH 22 0
BBX 20 23 1 0
BITMAP
03e000
077000
063000
063000
077000
03e000
000000
fe1fc0
fe1fc0
3e07c0
3e07c0
3e07c0
3e07c0
3e07c0
3e07c0
3e07c0
3e07c0
3e0fc0
3e0fc0
3f1fc0
1fffc0
1ff7f0
07c7f0
ENDCHAR
STARTCHAR uacute
ENCODING 250
SWIDTH 685 0
DWIDTH 22 0
BBX 20 23 1 0
BITMAP
001800
003c00
007c00
00f800
01e000
018000
000000
fe1fc0
fe1fc0
3e07c0
3e07c0
3e07c0
3e07c0
3e07c0
3e07c0
3e07c0
3e07c0
3e0fc0
3e0fc0
3f1fc0
1fffc0
1ff7f0
07c7f0
ENDCHAR
STARTCHAR udoubleacute
ENCODING 251
SWIDTH 685 0
DWIDTH 22 0
BBX 20 24 1 0
BITMAP
018c00
039c00
039c00
039c00
073800
063000
063000
000000
fe1fc0
fe1fc0
3e07c0
3e07c0
3e07c0
3e07c0
3e07c0
3e07c0
3e07c0
3e07c0
3e0fc0
3e0fc0
3f1fc0
1fffc0
1ff7f0
07c7f0
ENDCHAR
STARTCHAR udiaeresis
ENCODING 252
SWIDTH 685 0
DWIDTH 22 0
BBX 20 23 1 0
BITMAP
060c00
0f1e00
0f1e00
0f1e00
060c00
000000
000000
fe1fc0
fe1fc0
3e07c0
3e07c0
3e07c0
3e07c0
3e07c0
3e07c0
3e07c0
3e07c0
3e0fc0
3e0fc0
3f1fc0
1fffc0
1ff7f0
07c7f0
ENDCHAR
STARTCHAR yacute
ENCODING 253
SWIDTH 611 0
DWIDTH 19 0
BBX 19 30 0 -7
BITMAP
000c00
001e00
003e00
007c00
00f000
00c000
000000
ff8fe0
ff8fe0
3f0380
3f0380
1f0300
1f8700
0f8600
0fc600
07cc00
07ec00
03f800
03f800
01f800
01f000
00f000
00e000
006000
70c000
f8c000
f98000
ff0000
7f0000
3c0000
ENDCHAR
STARTCHAR tcedilla
ENCODING 254
SWIDTH 426 0
DWIDTH 14 0
BBX 12 30 1 -7
BITMAP
0600
0600
0e00
0e00
0e00
1e00
3e00
ffe0
ffe0
3e00
3e00
3e00
3e00
3e00
3e00
3e00
3e30
3e30
3e30
3e60
3fe0
1fc0
0f80
0600
0c00
1f00
0380
0380
3700
1e00
ENDCHAR
STARTCHAR abovedot
ENCODING 255
SWIDTH 333 0
DWIDTH 11 0
BBX 4 5 3 18
BITMAP
60
f0
f0
f0
60
ENDCHAR
ENDFONT
